<?xml version="1.0" encoding="iso-8859-1"?><!-- Generator: Adobe Illustrator 21.0.0, SVG Export Plug-In . SVG Version: 6.00 Build 0)  -->
<svg xmlns="http://www.w3.org/2000/svg" xmlns:xlink="http://www.w3.org/1999/xlink" viewBox="0 0 48 48" width="48px" height="48px">
<polygon style="fill:#004D40;" points="19.532,17.313 41,24 19.532,9.756 "/>
<polygon style="fill:#26A69A;" points="30.316,4 11.618,4 7,12 21,12 "/>
<polygon style="fill:#00897B;" points="41,24 30.316,4 21,12 "/>
<polygon style="fill:#004D40;" points="19.825,38.066 41,24 19.825,29.628 "/>
<polygon style="fill:#00897B;" points="21,31.097 41,24 20.998,16.924 17.26,24 "/>
<polygon style="fill:#26A69A;" points="21,16.924 17.094,15.56 8.056,24 17.094,32.461 21,31.096 "/>
<polygon style="fill:#26A69A;" points="21,36.021 7,36.021 11.618,44 30.316,44 21.014,36.012 "/>
<polygon style="fill:#00796B;" points="7,12 18.184,15.94 21,12 "/>
<polygon style="fill:#00897B;" points="21.014,36.012 30.316,44 41,24 "/>
<polygon style="fill:#00796B;" points="21,36 18.269,32.051 7,36.021 21,36.021 "/>
<polygon style="fill:#00695C;" points="21,31.096 17.094,32.461 21,36 "/>
<polygon style="fill:#00695C;" points="21,12 17.094,15.56 21,16.924 "/>
</svg>